<svg xmlns="http://www.w3.org/2000/svg" xmlns:xlink="http://www.w3.org/1999/xlink" id="Layer_1" width="800" height="800" version="1.1" viewBox="0 0 512 512" xml:space="preserve"><path style="fill:#f9d026" d="M144.345,349.701l67.389,20.636L64.631,196.909l96.855,26.032L0,0l222.942,161.484l-26.034-96.852	l173.426,147.103l-20.635-67.39c0,0,263.14,180.818,119.301,324.656S144.345,349.701,144.345,349.701z"/><path style="fill:#e7c224" d="M222.942,161.486l-26.033-96.853l173.426,147.103l-20.635-67.39c0,0,263.14,180.818,119.3,324.656	L0,0L222.942,161.486z"/><polygon style="fill:#ffac12" points="309.465 474.644 302.045 397.41 243.923 346.009 315.084 315.083 346.009 243.923 397.41 302.045 474.644 309.466 435.251 376.313 452.059 452.06 376.313 435.252"/><polygon style="fill:#d89210" points="474.644 309.466 435.251 376.313 452.059 452.06 315.084 315.083 346.009 243.923 397.41 302.045"/></svg>